<?xml version="1.0" encoding="UTF-8" standalone="no"?>
<svg
   xmlns:osb="http://www.openswatchbook.org/uri/2009/osb"
   xmlns:dc="http://purl.org/dc/elements/1.1/"
   xmlns:cc="http://creativecommons.org/ns#"
   xmlns:rdf="http://www.w3.org/1999/02/22-rdf-syntax-ns#"
   xmlns:svg="http://www.w3.org/2000/svg"
   xmlns="http://www.w3.org/2000/svg"
   xmlns:xlink="http://www.w3.org/1999/xlink"
   xmlns:sodipodi="http://sodipodi.sourceforge.net/DTD/sodipodi-0.dtd"
   xmlns:inkscape="http://www.inkscape.org/namespaces/inkscape"
   sodipodi:docname="loeterli-logo.svg"
   inkscape:version="1.0 (4035a4fb49, 2020-05-01)"
   id="svg8"
   version="1.1"
   viewBox="0 0 210 297"
   height="297mm"
   width="210mm">
  <defs
     id="defs2">
    <linearGradient
       id="linearGradient2884"
       inkscape:collect="always">
      <stop
         id="stop2880"
         offset="0"
         style="stop-color:#c98600;stop-opacity:1" />
      <stop
         id="stop2882"
         offset="1"
         style="stop-color:#f40000;stop-opacity:1" />
    </linearGradient>
    <linearGradient
       osb:paint="solid"
       id="linearGradient2862">
      <stop
         id="stop2860"
         offset="0"
         style="stop-color:#0000ff;stop-opacity:1;" />
    </linearGradient>
    <inkscape:path-effect
       update_on_knot_move="true"
       attempt_force_join="true"
       miter_limit="4"
       offset="0.3"
       unit="mm"
       linejoin_type="miter"
       lpeversion="1"
       is_visible="true"
       id="path-effect876"
       effect="offset" />
    <inkscape:path-effect
       update_on_knot_move="true"
       attempt_force_join="true"
       miter_limit="4"
       offset="0.3"
       unit="mm"
       linejoin_type="miter"
       lpeversion="1"
       is_visible="true"
       id="path-effect874"
       effect="offset" />
    <inkscape:path-effect
       update_on_knot_move="true"
       attempt_force_join="true"
       miter_limit="4"
       offset="0.3"
       unit="mm"
       linejoin_type="miter"
       lpeversion="1"
       is_visible="true"
       id="path-effect872"
       effect="offset" />
    <inkscape:path-effect
       update_on_knot_move="true"
       attempt_force_join="true"
       miter_limit="4"
       offset="0.3"
       unit="mm"
       linejoin_type="miter"
       lpeversion="1"
       is_visible="true"
       id="path-effect870"
       effect="offset" />
    <inkscape:path-effect
       update_on_knot_move="true"
       attempt_force_join="true"
       miter_limit="4"
       offset="0.3"
       unit="mm"
       linejoin_type="miter"
       lpeversion="1"
       is_visible="true"
       id="path-effect868"
       effect="offset" />
    <inkscape:path-effect
       update_on_knot_move="true"
       attempt_force_join="true"
       miter_limit="4"
       offset="0.3"
       unit="mm"
       linejoin_type="miter"
       lpeversion="1"
       is_visible="true"
       id="path-effect866"
       effect="offset" />
    <inkscape:path-effect
       update_on_knot_move="true"
       attempt_force_join="true"
       miter_limit="4"
       offset="0.3"
       unit="mm"
       linejoin_type="miter"
       lpeversion="1"
       is_visible="true"
       id="path-effect864"
       effect="offset" />
    <inkscape:path-effect
       update_on_knot_move="true"
       attempt_force_join="true"
       miter_limit="4"
       offset="0.3"
       unit="mm"
       linejoin_type="miter"
       lpeversion="1"
       is_visible="true"
       id="path-effect862"
       effect="offset" />
    <linearGradient
       gradientUnits="userSpaceOnUse"
       y2="133.33649"
       x2="101.44341"
       y1="148.44504"
       x1="99.045815"
       id="linearGradient2888"
       xlink:href="#linearGradient2884"
       inkscape:collect="always" />
  </defs>
  <sodipodi:namedview
     inkscape:window-maximized="1"
     inkscape:window-y="0"
     inkscape:window-x="0"
     inkscape:window-height="1017"
     inkscape:window-width="1920"
     inkscape:snap-global="false"
     showgrid="false"
     inkscape:document-rotation="0"
     inkscape:current-layer="layer1"
     inkscape:document-units="mm"
     inkscape:cy="530.9369"
     inkscape:cx="457.27084"
     inkscape:zoom="11.2"
     inkscape:pageshadow="2"
     inkscape:pageopacity="0.0"
     borderopacity="1.0"
     bordercolor="#666666"
     pagecolor="#ffffff"
     id="base" />
  <metadata
     id="metadata5">
    <rdf:RDF>
      <cc:Work
         rdf:about="">
        <dc:format>image/svg+xml</dc:format>
        <dc:type
           rdf:resource="http://purl.org/dc/dcmitype/StillImage" />
        <dc:title></dc:title>
      </cc:Work>
    </rdf:RDF>
  </metadata>
  <g
     id="layer1"
     inkscape:groupmode="layer"
     inkscape:label="Layer 1">
    <path
       d="m 128.19141,140.88086 c -0.75848,0 -1.26563,0.32576 -1.26563,1.01172 0,0.33339 0.14662,0.62106 0.40234,0.85547 l 0.004,0.004 0.006,0.004 c 0.26894,0.22757 0.56789,0.35156 0.9043,0.35156 0.32142,0 0.6091,-0.0959 0.86914,-0.29101 0.28232,-0.21717 0.44726,-0.47728 0.44726,-0.82227 0,-0.35134 -0.18912,-0.60663 -0.49023,-0.80273 -0.26551,-0.19971 -0.55446,-0.31055 -0.87695,-0.31055 z m 0.87695,0.31055 c 0.005,0.004 0.0123,0.002 0.0176,0.006 l -0.0215,-0.0137 c 0.003,0.002 0.001,0.006 0.004,0.008 z m -2.86524,2.40625 c -0.77344,0.0215 -1.65306,0.96875 -2.66015,2.60742 -1.00914,1.62488 -1.54492,2.94515 -1.54492,3.9414 0,1.24303 0.5213,1.97852 1.5957,1.97852 0.52159,0 0.9862,-0.0827 1.39453,-0.25781 0.21765,-0.10046 0.40949,-0.18293 0.57227,-0.24805 l 0.0117,-0.006 0.0117,-0.006 c 0.19123,-0.0956 0.40368,-0.23389 0.63282,-0.41015 0.21904,-0.16849 0.38363,-0.29328 0.49804,-0.375 0.12898,-0.0921 0.31605,-0.24922 0.53907,-0.45508 0.23615,-0.21929 0.38872,-0.35707 0.46484,-0.41797 l 0.0137,-0.01 0.0117,-0.0117 c 0.0868,-0.0867 0.24212,-0.25108 0.45703,-0.48242 l 0.008,-0.008 c 0.23825,-0.23837 0.54862,-0.55913 0.93555,-0.96289 0.39523,-0.41241 0.66797,-0.74047 0.66797,-1.01953 0,-0.2775 -0.17447,-0.50391 -0.47852,-0.50391 -0.26912,0 -0.53743,0.30531 -0.8457,0.69922 -0.80376,1.017 -1.89951,1.95943 -3.30273,2.82813 -0.59271,0.37867 -1.01356,0.53515 -1.28711,0.53515 -0.1986,0 -0.33399,-0.11206 -0.33399,-0.61328 0,-0.52498 0.57837,-1.58414 1.84375,-3.2207 0.21962,-0.28718 0.44815,-0.58216 0.68946,-0.89258 0.2366,-0.32111 0.41796,-0.56248 0.55078,-0.72852 0.13326,-0.16656 0.25789,-0.31565 0.37304,-0.44726 l 0.006,-0.006 0.004,-0.008 c 0.12031,-0.15468 0.22489,-0.29336 0.3125,-0.41602 l 0.0566,-0.0781 v -0.0957 c 0,-0.28572 -0.21526,-0.50109 -0.46875,-0.6582 -0.23297,-0.15458 -0.47486,-0.25207 -0.72852,-0.25195 z m -2.76171,-5.00391 c -1.02364,0 -2.48524,1.74448 -4.47071,4.96875 -1.08744,1.75011 -1.88531,3.2166 -2.38672,4.39258 -0.2969,0.75099 -0.45312,1.43202 -0.45312,2.03906 0,0.63162 0.2277,1.12791 0.7207,1.4707 0.44721,0.29166 0.97816,0.43164 1.58594,0.43164 1.25779,0 2.75467,-1.01313 4.4668,-2.89648 0.6952,-0.77999 1.11718,-1.26862 1.11718,-1.51953 0,-0.29097 -0.2208,-0.45313 -0.47851,-0.45313 -0.26121,3e-5 -0.50897,0.24242 -0.72266,0.52735 l 0.008,-0.01 c -0.81517,0.99816 -1.64862,1.78049 -2.5,2.35352 -0.86213,0.58028 -1.51284,0.83593 -1.99218,0.83594 -0.41124,0 -0.53711,-0.13149 -0.53711,-0.46094 0,-0.45129 0.12715,-0.94748 0.40234,-1.49805 0.13347,-0.28364 0.24643,-0.49926 0.3418,-0.6582 l 0.002,-0.006 0.004,-0.004 c 0.0975,-0.17872 0.24549,-0.42661 0.44726,-0.74609 0.22143,-0.32377 0.54191,-0.80435 0.96485,-1.44727 0.41913,-0.65384 1.17491,-1.71977 2.27344,-3.20703 1.11769,-1.49025 1.86996,-2.49806 2.25976,-3.02344 l 0.0703,-0.0957 -0.0117,-0.11719 c -0.0303,-0.27259 -0.20465,-0.46515 -0.43554,-0.61523 -0.20502,-0.1594 -0.42872,-0.26172 -0.67578,-0.26172 z m 0.67578,0.26172 c 0.006,0.005 0.0136,0.003 0.0195,0.008 l -0.0273,-0.0195 c 0.004,0.003 0.004,0.009 0.008,0.0117 z m -12.71485,2.10156 c -0.80992,0 -1.36385,0.92862 -1.76172,2.43359 l 0.0215,-0.0605 c -0.59599,1.15886 -1.61735,2.58305 -3.08008,4.28125 -0.30094,0.33633 -0.50976,0.63885 -0.50976,0.93555 0,0.2706 0.21321,0.40234 0.42773,0.40234 0.35336,0 1.01145,-0.76196 2.06641,-2.07227 l 1.63867,-2.125 c 0.23231,0.32812 0.51143,0.54785 0.85547,0.60352 -0.3519,0.52089 -0.69761,1.06275 -1,1.75 -0.38461,0.8741 -0.58399,1.69514 -0.58399,2.45703 0,1.55215 0.75495,2.41016 2.20508,2.41016 0.95061,0 2.12584,-0.54683 3.48828,-1.56446 0.56867,-0.44805 1.08732,-0.91375 1.55469,-1.39843 l 0.004,-0.006 0.81445,-0.91602 c 0.16984,-0.18871 0.30664,-0.41795 0.30664,-0.63281 0,-0.2775 -0.17447,-0.50391 -0.47852,-0.50391 -0.23107,0 -0.56476,0.40854 -1.08398,1.01172 -0.54492,0.59446 -1.14847,1.13131 -1.81055,1.61133 -1.11466,0.81519 -1.99422,1.18555 -2.69336,1.18555 -0.57166,0 -0.8164,-0.24868 -0.8164,-0.89258 0,-0.71291 0.4893,-1.74521 1.55859,-3.11524 l 1.78125,-2.24609 0.0176,-0.0449 c 0.10593,-0.28248 -0.0162,-0.54729 -0.21094,-0.76367 -0.18008,-0.20012 -0.40177,-0.35352 -0.6543,-0.35352 -0.1417,0 -0.28332,0.006 -0.38867,0.0586 l -0.0117,0.006 -0.66601,0.41016 c -0.34267,0.2025 -0.62837,0.28711 -0.86328,0.28711 -0.3742,0 -0.41535,-0.0978 -0.43164,-0.20703 l 0.48828,-0.65039 c 0.43816,-0.54333 0.70117,-1.05011 0.70117,-1.48243 0,-0.52533 -0.35415,-0.80859 -0.88477,-0.80859 z m -6.01953,2.25977 c -1.3002,0 -2.71625,0.84664 -4.23047,2.42968 -1.51317,1.58195 -2.318356,3.02706 -2.318356,4.32227 0,1.07569 0.655393,1.78262 1.839846,2.11719 0.18481,0.0604 0.38351,0.0898 0.59375,0.0898 0.97553,0 2.14613,-0.51117 3.45312,-1.45703 1.3096,-0.94773 2.43023,-2.03358 3.36719,-3.26563 0.14691,-0.20198 0.26172,-0.40593 0.26172,-0.60742 0,-0.29097 -0.22086,-0.45312 -0.47852,-0.45312 -0.25143,0 -0.45406,0.20232 -0.61718,0.41992 -0.71235,0.91114 -1.57447,1.77561 -2.59766,2.59766 -1.31981,1.11934 -2.33771,1.6289 -3.08398,1.6289 -0.65749,0 -0.94336,-0.29195 -0.94336,-1.01953 0,-0.39067 0.12388,-0.75732 0.29297,-1.11719 0.0488,0.004 0.0921,0.0215 0.14257,0.0215 0.96956,0 2.19571,-0.46417 3.63477,-1.33789 1.48117,-0.8887 2.30469,-1.8761 2.30469,-2.97656 0,-0.40499 -0.1709,-0.72727 -0.49024,-0.98633 -0.30285,-0.27591 -0.68316,-0.40625 -1.13086,-0.40625 z m 1.13086,0.40625 c 0.004,0.003 0.0101,6e-4 0.0137,0.004 l -0.0176,-0.0137 c 0.003,0.002 8.6e-4,0.007 0.004,0.01 z m -1.10547,0.93164 c 0.15998,0 0.26756,0.0147 0.33399,0.0352 0.006,0.002 0.0106,0.004 0.0156,0.006 -0.003,0.0213 -0.003,0.0387 -0.0195,0.0801 l -0.002,0.008 -0.004,0.008 c -0.2421,0.72629 -0.85783,1.43186 -1.90625,2.10351 -0.85017,0.53979 -1.42109,0.69028 -1.94922,0.78516 0.52737,-0.71668 1.07654,-1.4303 1.89453,-2.10547 0.78079,-0.64789 1.33026,-0.91992 1.63672,-0.91992 z m -7.874997,-3.85157 c -0.326657,0 -0.723071,0.41598 -1.203125,1.03321 -0.355532,0.46374 -0.664721,0.86223 -0.949219,1.22656 h -1.351562 l -0.02344,0.004 c -0.09759,0.0163 -0.145521,0.0215 -0.179687,0.0215 H 93.7832 l -0.04102,0.0137 c -0.484644,0.14137 -0.826172,0.43234 -0.826172,0.89649 0,0.59413 0.417304,0.88476 1.037109,0.88476 0.02442,0 0.0586,-0.009 0.08398,-0.01 -0.306761,0.58026 -0.643371,1.22619 -1.138671,2.21679 -0.617404,1.21766 -0.949219,2.21805 -0.949219,2.97852 0,0.73911 0.174173,1.32282 0.605469,1.64063 l 0.0078,0.004 0.0059,0.006 c 0.399358,0.25958 0.893459,0.37891 1.460938,0.37891 1.271184,0 2.584662,-0.43114 3.9375,-1.26367 1.133303,-0.67999 2.150156,-1.57555 3.048826,-2.68165 0.25925,-0.31109 0.45118,-0.57431 0.45118,-0.80078 0,-0.16405 -0.0765,-0.45312 -0.37696,-0.45312 -0.22451,0 -0.45146,0.20127 -0.70117,0.45117 -1.072853,1.1399 -2.067619,1.98904 -2.988282,2.56445 -0.335548,0.20773 -0.819945,0.43646 -1.472657,0.6875 -0.645983,0.24846 -1.13261,0.35938 -1.492187,0.35938 -0.750368,0 -0.994141,-0.22728 -0.994141,-0.63867 0,-0.59509 0.392881,-1.5538 1.251953,-2.96875 0.843479,-1.4058 1.396432,-2.20234 1.681641,-2.47071 0.206317,-0.0541 1.229535,-0.1962 3.28125,-0.46093 1.906573,-0.24404 3.016893,-0.43664 3.287113,-0.64649 0.0544,-0.0423 0.14844,-0.13986 0.14844,-0.28516 0,-0.18558 -0.14936,-0.28511 -0.21094,-0.32617 l -0.0762,-0.0508 -3.746099,0.0508 c -0.479401,0 -0.805959,-0.008 -1.160156,-0.0156 0.461387,-0.55522 0.953124,-1.12189 0.953124,-1.35938 0,-0.34186 -0.232992,-0.58272 -0.542968,-0.74804 -0.272303,-0.14524 -0.546132,-0.23829 -0.775391,-0.23829 z m -6.222656,2.51368 c -1.300206,0 -2.716252,0.84664 -4.230469,2.42968 -1.51317,1.58195 -2.318359,3.02706 -2.318359,4.32227 0,1.07569 0.655401,1.78262 1.839843,2.11719 0.184819,0.0604 0.383514,0.0898 0.59375,0.0898 0.975537,0 2.146125,-0.51117 3.453126,-1.45703 1.30947,-0.94764 2.432055,-2.03341 3.36914,-3.26563 0.146902,-0.20198 0.261719,-0.40593 0.261719,-0.60742 0,-0.29097 -0.220861,-0.45312 -0.478516,-0.45312 -0.251437,0 -0.454062,0.20232 -0.617187,0.41992 -0.712235,0.911 -1.576226,1.77546 -2.59961,2.59766 -1.319812,1.11934 -2.337704,1.6289 -3.083984,1.6289 -0.657475,0 -0.943359,-0.29196 -0.943359,-1.01953 0,-0.39067 0.123882,-0.75732 0.292968,-1.11719 0.04881,0.004 0.0921,0.0215 0.142579,0.0215 0.969557,0 2.195708,-0.46417 3.634765,-1.33789 1.481161,-0.8887 2.304688,-1.87609 2.304688,-2.97656 0,-0.405 -0.170898,-0.72727 -0.490235,-0.98633 -0.302852,-0.27591 -0.683165,-0.40625 -1.130859,-0.40625 z m 1.130859,0.40625 c 0.0036,0.003 0.01012,6e-4 0.01367,0.004 l -0.01758,-0.0137 c 0.0031,0.002 8.67e-4,0.007 0.0039,0.01 z m -1.105468,0.93164 c 0.159971,0 0.267559,0.0147 0.333984,0.0352 0.0062,0.002 0.01062,0.004 0.01563,0.006 -0.0032,0.0213 -0.003,0.0387 -0.01953,0.0801 l -0.002,0.008 -0.0039,0.008 c -0.242098,0.72629 -0.857827,1.43186 -1.90625,2.10351 -0.850169,0.53979 -1.421091,0.69028 -1.949218,0.78516 0.527369,-0.71668 1.076539,-1.4303 1.894531,-2.10547 0.780796,-0.6479 1.330253,-0.91992 1.636719,-0.91992 z m -7.009766,-2.04883 c -1.065622,0 -2.337285,1.01732 -3.841797,2.88086 -1.486005,1.84469 -2.275391,3.33045 -2.275391,4.45508 0,0.44441 0.115561,0.84569 0.347657,1.21679 0.298301,0.53364 0.729776,0.83789 1.298828,0.83789 h 0.40625 c 1.078342,0 2.308243,-0.91383 3.662109,-2.57617 1.141143,-1.39662 1.769531,-2.47188 1.769531,-3.16015 0,-0.018 -0.0052,-0.0347 -0.0059,-0.0527 1.180475,-0.49923 1.956697,-0.93376 1.984375,-1.4043 l 0.03125,-0.52539 -0.466797,0.24024 c -0.61775,0.31722 -1.007684,0.44922 -1.259766,0.44922 -0.07165,0 -0.09902,-0.003 -0.148437,-0.006 0.04344,-0.24488 0.09375,-0.49966 0.09375,-0.6836 0,-1.0677 -0.560236,-1.67187 -1.595703,-1.67187 z m -5.769531,8.55273 c -0.001,-0.002 -0.0029,-0.002 -0.0039,-0.004 l 0.0078,0.0137 c -0.0019,-0.003 -0.002,-0.007 -0.0039,-0.01 z m 5.111328,-5.85547 c 0.272607,0.38822 0.527169,0.67484 0.757812,0.85547 -0.01927,0.46231 -0.485322,1.31504 -1.572265,2.59961 -1.10197,1.30233 -1.948779,1.87305 -2.541016,1.87305 -0.174103,0 -0.308594,-0.11326 -0.308594,-0.66406 0,-0.52124 0.471888,-1.47133 1.509766,-2.81055 1.021327,-1.29692 1.719808,-1.81602 2.154297,-1.85352 z m -2.16211,-11.20703 c -2.401188,-1e-5 -5.271582,2.58525 -8.654297,7.54883 -0.254355,0.37306 -0.61009,0.8992 -1.068359,1.57813 -0.36188,0.54282 -0.590499,0.87535 -0.791015,1.16406 -0.966448,-0.55874 -1.453126,-1.17112 -1.453126,-1.83594 v -0.15234 c 0,-0.36211 0.145823,-0.78507 0.476563,-1.27344 0.32783,-0.46194 0.694183,-0.66211 1.050781,-0.66211 h 0.05078 c 0.291745,0 0.588386,0.12746 0.880859,0.41992 0.149344,0.14941 0.322942,0.10515 0.423828,0.0547 l 0.01563,-0.008 0.01563,-0.01 c 0.233047,-0.15533 0.180888,-0.42929 0.103516,-0.58398 -0.296974,-0.61376 -0.777042,-0.95703 -1.414063,-0.95703 -0.564693,0 -1.084232,0.18391 -1.578125,0.54492 -0.873268,0.66888 -1.3125,1.54364 -1.3125,2.62695 0,1.21639 0.734846,2.11718 1.96875,2.77539 -0.819375,1.1678 -1.602431,2.24612 -2.361328,3.25782 l -1.380859,-2.67188 -0.002,-0.004 c -0.401706,-0.71609 -0.827289,-1.19531 -1.302734,-1.19531 h -0.02734 l -0.02734,0.006 c -0.618828,0.1146 -1.281865,0.9565 -2.085938,2.35938 -0.791394,1.41074 -1.207031,2.63032 -1.207031,3.65039 0,1.0263 0.31705,1.7777 1.041016,2.1914 l 0.0059,0.004 0.0078,0.004 c 0.320837,0.16042 0.690184,0.23633 1.09961,0.23633 1.253315,0 2.5398,-0.70524 3.845703,-1.94531 0.950564,1.0384 2.111425,1.88546 3.527344,2.50391 1.505039,0.65736 2.967524,0.99023 4.386718,0.99023 1.419927,0 2.577707,-0.33363 3.445313,-1.03516 0.674406,-0.56505 1.046875,-1.19479 1.046875,-1.90624 0,-0.24034 -0.08043,-0.49604 -0.207031,-0.75391 -0.12344,-0.30348 -0.316444,-0.56445 -0.652344,-0.56445 -0.369574,0 -0.509388,0.30267 -0.447266,0.61328 0.02967,0.14835 0.04492,0.30831 0.04492,0.47656 0,0.60036 -0.294654,1.06459 -0.962891,1.41406 -0.484119,0.27232 -1.246581,0.41797 -2.34375,0.41797 -1.059331,0 -2.346163,-0.35195 -3.880859,-1.08594 -1.432832,-0.69279 -2.343712,-1.41967 -2.914062,-2.16211 1.398883,-1.73148 2.46614,-3.0661 3.142578,-3.93359 0.352883,0.0919 0.730763,0.16211 1.189453,0.16211 1.482099,0 3.079568,-0.44949 4.785156,-1.32813 1.733401,-0.88403 3.123626,-2.05471 4.169922,-3.51953 1.321717,-1.83666 2.013672,-3.4772 2.013672,-4.90039 0,-1.64714 -0.937015,-2.51172 -2.664063,-2.51172 z m -1.480468,16.92188 c 0.0014,0.003 0.0064,0.002 0.0078,0.006 l -0.01172,-0.0234 c 0.003,0.006 9.94e-4,0.0117 0.0039,0.0176 z m 1.582031,-15.88867 c 0.158814,0 0.295665,0.0218 0.417969,0.0625 0.455837,0.14325 0.679687,0.45341 0.679687,1.00976 0,1.01405 -0.725161,2.59226 -2.255859,4.72852 -0.850223,1.19358 -2.013545,2.18665 -3.501953,2.98047 -1.497227,0.79852 -2.80271,1.18359 -3.923828,1.18359 -0.07235,0 -0.123989,-0.0157 -0.191407,-0.0195 0.862604,-1.1305 1.784669,-2.38888 2.824219,-3.90234 1.164916,-1.68828 2.175249,-3.02399 3.027344,-4.00977 1.236537,-1.40364 2.203366,-2.0332 2.923828,-2.0332 z M 64.677734,146.25 c 0.02943,0.03 0.05982,0.0611 0.109375,0.12305 l 0.0059,0.006 0.0059,0.008 c 0.114003,0.12667 0.403802,0.62988 0.84375,1.50976 0.398486,0.78165 0.785146,1.40273 1.16211,1.94532 -0.383799,0.46341 -0.825573,0.90673 -1.378907,1.31054 -0.585359,0.43902 -1.045026,0.625 -1.394531,0.625 -0.374816,0 -0.613281,-0.28179 -0.613281,-1.17382 0,-0.96241 0.170007,-1.94529 0.515625,-2.94922 0.344885,-1.00181 0.627624,-1.37387 0.74414,-1.4043 z"
       style="font-style:normal;font-variant:normal;font-weight:normal;font-stretch:normal;font-size:25.4px;line-height:1.25;font-family:'Alex Brush';-inkscape-font-specification:'Alex Brush';letter-spacing:0px;word-spacing:0px;fill:url(#linearGradient2888);fill-opacity:1;stroke:none;stroke-width:0.264583"
       id="path851" />
    <path
       sodipodi:nodetypes="ssssscs"
       id="path2892"
       d="m 127.45814,135.51734 c -0.76345,1.09705 -4.89484,7.98372 0.9546,8.19356 5.84943,0.20985 3.4894,-6.6661 3.08156,-6.6915 -0.40784,-0.0254 -0.76427,1.81831 -1.27771,1.7292 -0.51343,-0.0891 -0.007,-3.19433 -0.39313,-3.2406 -0.38646,-0.0463 -1.03506,3.30196 -1.53521,3.23061 -0.50015,-0.0713 -0.3388,-3.92726 -0.83011,-3.22127 z"
       style="fill:#da2600;stroke:none;stroke-width:0.264583px;stroke-linecap:butt;stroke-linejoin:miter;stroke-opacity:1;fill-opacity:1" />
    <path
       d="m 127.35156,136.69531 c -0.50193,0.8615 -1.13866,2.07523 -1.4082,3.35352 -0.18478,0.8763 -0.15301,1.65925 0.16992,2.1875 0.32293,0.52824 0.95355,0.92962 2.31641,0.97851 1.3663,0.049 2.14656,-0.30174 2.63086,-0.80273 0.4843,-0.50099 0.70109,-1.21271 0.74218,-1.98438 0.0411,-0.77166 -0.0992,-1.58324 -0.27343,-2.18359 -0.0355,-0.1223 -0.069,-0.18465 -0.10547,-0.28711 -0.0275,0.0597 -0.0474,0.0952 -0.0762,0.1582 -0.10424,0.22793 -0.21372,0.4653 -0.36524,0.68165 -0.0758,0.10817 -0.16138,0.215 -0.29492,0.30859 -0.13354,0.0936 -0.34538,0.16948 -0.55664,0.13281 -0.31071,-0.0539 -0.46269,-0.30679 -0.52734,-0.47461 -0.0647,-0.16782 -0.0878,-0.32849 -0.10547,-0.5039 -0.0224,-0.22164 -0.016,-0.47995 -0.0156,-0.73047 -0.1107,0.32772 -0.2211,0.66256 -0.34375,0.93359 -0.0771,0.17046 -0.15249,0.32109 -0.26367,0.46289 -0.0556,0.0709 -0.12025,0.14178 -0.22266,0.20703 -0.1024,0.0652 -0.26401,0.12185 -0.43359,0.0977 -0.18719,-0.0267 -0.32379,-0.13771 -0.40039,-0.23047 -0.0766,-0.0928 -0.11624,-0.17842 -0.15039,-0.26367 -0.0683,-0.1705 -0.10617,-0.34741 -0.14063,-0.54492 -0.0689,-0.39503 -0.11069,-0.86784 -0.15234,-1.3086 -0.007,-0.0782 -0.0158,-0.11181 -0.0234,-0.1875 z"
       inkscape:original="M 129.82422 135.50781 C 129.43776 135.46151 128.78921 138.80963 128.28906 138.73828 C 127.78891 138.66698 127.95029 134.81159 127.45898 135.51758 C 126.69553 136.61463 122.56267 143.5011 128.41211 143.71094 C 134.26154 143.92079 131.90198 137.04493 131.49414 137.01953 C 131.0863 136.99413 130.73024 138.83716 130.2168 138.74805 C 129.70337 138.65895 130.21035 135.55408 129.82422 135.50781 z "
       inkscape:radius="-0.4973819"
       sodipodi:type="inkscape:offset"
       style="fill:#ff7418;stroke:none;stroke-width:0.264583px;stroke-linecap:butt;stroke-linejoin:miter;stroke-opacity:1;fill-opacity:1"
       id="path2894" />
    <path
       id="path2897"
       style="fill:#ffa823;stroke:none;stroke-width:0.264583px;stroke-linecap:butt;stroke-linejoin:miter;stroke-opacity:1;fill-opacity:1"
       sodipodi:type="inkscape:offset"
       inkscape:radius="-1.0145056"
       inkscape:original="M 129.82422 135.50781 C 129.43776 135.46151 128.78921 138.80963 128.28906 138.73828 C 127.78891 138.66698 127.95029 134.81159 127.45898 135.51758 C 126.69553 136.61463 122.56267 143.5011 128.41211 143.71094 C 134.26154 143.92079 131.90198 137.04493 131.49414 137.01953 C 131.0863 136.99413 130.73024 138.83716 130.2168 138.74805 C 129.70337 138.65895 130.21035 135.55408 129.82422 135.50781 z "
       d="m 127.07617,138.50195 c -0.2407,0.55511 -0.51293,1.11357 -0.62695,1.6543 -0.17027,0.80749 -0.11517,1.45282 0.10351,1.81055 0.21869,0.35772 0.63708,0.68529 1.89649,0.73047 1.26643,0.0454 1.87103,-0.2626 2.24023,-0.64454 0.36921,-0.38193 0.56079,-0.96 0.59766,-1.65234 0.0192,-0.36031 -0.0809,-0.68716 -0.13281,-1.04687 -0.0589,0.0593 -0.0851,0.11634 -0.16992,0.17578 -0.21034,0.1474 -0.57724,0.28195 -0.94141,0.21875 -0.43123,-0.0748 -0.56282,-0.36949 -0.70117,-0.60743 -0.0244,0.0354 -0.0317,0.0667 -0.0606,0.10352 -0.0789,0.10062 -0.17629,0.21254 -0.35156,0.32422 -0.17528,0.11168 -0.46981,0.21854 -0.78321,0.17383 -0.3493,-0.0498 -0.59777,-0.25811 -0.72656,-0.41407 -0.12879,-0.15595 -0.18585,-0.28413 -0.23242,-0.40039 -0.0611,-0.15264 -0.0818,-0.28766 -0.11133,-0.42578 z" />
  </g>
</svg>
